<svg width="58" height="58" viewBox="0 0 58 58" fill="none" xmlns="http://www.w3.org/2000/svg">
<path fill-rule="evenodd" clip-rule="evenodd" d="M28.8969 8V8.00008L38.9636 14.7041L38.7574 22.9552L28.8969 16.4575V16.4574L19.0578 22.9552L18.8515 14.704L28.8969 8ZM28.8969 29.2466V29.2468L19.0578 35.7445L18.8515 27.4934L28.8969 20.7894V20.7892L38.9636 27.4932L38.7574 35.7444L28.8969 29.2466ZM28.8969 42.9641V42.9643L19.0578 49.4621L18.8515 41.2109L28.8969 34.5069V34.5067L38.9636 41.2108L38.7574 49.4619L28.8969 42.9641ZM42.2018 13.1571V30.7939L42.2018 34.6098C43.852 34.713 47.1525 35.7856 47.1525 39.2511V44.408L52 47.7085V30.0717L52 26.2557C50.3498 26.1526 47.0493 25.08 47.0493 21.6145V16.4575L42.2018 13.1571ZM15.7982 30.7939V13.1571L10.9507 16.4575V21.6145C10.9507 25.08 7.65024 26.1526 6.00001 26.2557L6 30.0717V47.7085L10.8475 44.408V39.2511C10.8475 35.7856 14.148 34.713 15.7982 34.6098L15.7982 30.7939Z" fill="#A0A0A0"/>
</svg>
